<?xml version="1.0" encoding="us-ascii" standalone="no"?><svg xmlns="http://www.w3.org/2000/svg" xmlns:xlink="http://www.w3.org/1999/xlink" contentStyleType="text/css" height="773px" preserveAspectRatio="none" style="width:1293px;height:773px;background:#FFFFFF;" version="1.1" viewBox="0 0 1293 773" width="1293px" zoomAndPan="magnify"><defs/><g><!--class User--><g id="elem_User"><rect codeLine="6" fill="#F1F1F1" height="184.4844" id="User" rx="2.5" ry="2.5" style="stroke:#181818;stroke-width:0.5;" width="226" x="508" y="7"/><text fill="#000000" font-family="sans-serif" font-size="14" lengthAdjust="spacing" textLength="29" x="606.5" y="26.5332">User</text><line style="stroke:#181818;stroke-width:0.5;" x1="509" x2="733" y1="34.6094" y2="34.6094"/><text fill="#000000" font-family="sans-serif" font-size="14" lengthAdjust="spacing" textLength="79" x="514" y="53.1426">Name: string</text><text fill="#000000" font-family="sans-serif" font-size="14" lengthAdjust="spacing" textLength="100" x="514" y="70.752">Surname: string</text><text fill="#000000" font-family="sans-serif" font-size="14" lengthAdjust="spacing" textLength="77" x="514" y="88.3613">Email: string</text><text fill="#000000" font-family="sans-serif" font-size="14" lengthAdjust="spacing" textLength="133" x="514" y="105.9707">PhoneNumber: string</text><text fill="#000000" font-family="sans-serif" font-size="14" lengthAdjust="spacing" textLength="146" x="514" y="123.5801">DeliveryAddress: string</text><text fill="#000000" font-family="sans-serif" font-size="14" lengthAdjust="spacing" textLength="104" x="514" y="141.1895">Password: string</text><text fill="#000000" font-family="sans-serif" font-size="14" lengthAdjust="spacing" textLength="72" x="514" y="158.7988">Role: string</text><line style="stroke:#181818;stroke-width:0.5;" x1="509" x2="733" y1="165.875" y2="165.875"/><ellipse cx="519" cy="180.1797" fill="#000000" rx="3" ry="3" style="stroke:#000000;stroke-width:1.0;"/><text fill="#000000" font-family="sans-serif" font-size="14" lengthAdjust="spacing" textLength="200" x="528" y="184.4082">UserID: int (PK, Auto Increment)</text></g><!--class Order--><g id="elem_Order"><rect codeLine="17" fill="#F1F1F1" height="114.0469" id="Order" rx="2.5" ry="2.5" style="stroke:#181818;stroke-width:0.5;" width="234" x="504" y="260"/><text fill="#000000" font-family="sans-serif" font-size="14" lengthAdjust="spacing" textLength="37" x="602.5" y="279.5332">Order</text><line style="stroke:#181818;stroke-width:0.5;" x1="505" x2="737" y1="287.6094" y2="287.6094"/><text fill="#000000" font-family="sans-serif" font-size="14" lengthAdjust="spacing" textLength="129" x="510" y="306.1426">OrderDate: datetime</text><text fill="#000000" font-family="sans-serif" font-size="14" lengthAdjust="spacing" textLength="120" x="510" y="323.752">OrderStatus: string</text><line style="stroke:#181818;stroke-width:0.5;" x1="505" x2="737" y1="330.8281" y2="330.8281"/><ellipse cx="515" cy="345.1328" fill="#000000" rx="3" ry="3" style="stroke:#000000;stroke-width:1.0;"/><text fill="#000000" font-family="sans-serif" font-size="14" lengthAdjust="spacing" textLength="208" x="524" y="349.3613">OrderID: int (PK, Auto Increment)</text><text fill="#000000" font-family="sans-serif" font-size="14" lengthAdjust="spacing" textLength="97" x="524" y="366.9707">UserID: int (FK)</text></g><!--class Product--><g id="elem_Product"><rect codeLine="24" fill="#F1F1F1" height="131.6563" id="Product" rx="2.5" ry="2.5" style="stroke:#181818;stroke-width:0.5;" width="246" x="895" y="251"/><text fill="#000000" font-family="sans-serif" font-size="14" lengthAdjust="spacing" textLength="49" x="993.5" y="270.5332">Product</text><line style="stroke:#181818;stroke-width:0.5;" x1="896" x2="1140" y1="278.6094" y2="278.6094"/><text fill="#000000" font-family="sans-serif" font-size="14" lengthAdjust="spacing" textLength="79" x="901" y="297.1426">Name: string</text><text fill="#000000" font-family="sans-serif" font-size="14" lengthAdjust="spacing" textLength="114" x="901" y="314.752">Description: string</text><line style="stroke:#181818;stroke-width:0.5;" x1="896" x2="1140" y1="321.8281" y2="321.8281"/><ellipse cx="906" cy="336.1328" fill="#000000" rx="3" ry="3" style="stroke:#000000;stroke-width:1.0;"/><text fill="#000000" font-family="sans-serif" font-size="14" lengthAdjust="spacing" textLength="220" x="915" y="340.3613">ProductID: int (PK, Auto Increment)</text><text fill="#000000" font-family="sans-serif" font-size="14" lengthAdjust="spacing" textLength="134" x="915" y="357.9707">Price: decimal (10, 2)</text><text fill="#000000" font-family="sans-serif" font-size="14" lengthAdjust="spacing" textLength="143" x="915" y="375.5801">StockQuantity: int (FK)</text></g><!--class Delivery--><g id="elem_Delivery"><rect codeLine="32" fill="#F1F1F1" height="131.6563" id="Delivery" rx="2.5" ry="2.5" style="stroke:#181818;stroke-width:0.5;" width="248" x="7" y="443"/><text fill="#000000" font-family="sans-serif" font-size="14" lengthAdjust="spacing" textLength="51" x="105.5" y="462.5332">Delivery</text><line style="stroke:#181818;stroke-width:0.5;" x1="8" x2="254" y1="470.6094" y2="470.6094"/><text fill="#000000" font-family="sans-serif" font-size="14" lengthAdjust="spacing" textLength="143" x="13" y="489.1426">DeliveryDate: datetime</text><text fill="#000000" font-family="sans-serif" font-size="14" lengthAdjust="spacing" textLength="134" x="13" y="506.752">DeliveryStatus: string</text><line style="stroke:#181818;stroke-width:0.5;" x1="8" x2="254" y1="513.8281" y2="513.8281"/><ellipse cx="18" cy="528.1328" fill="#000000" rx="3" ry="3" style="stroke:#000000;stroke-width:1.0;"/><text fill="#000000" font-family="sans-serif" font-size="14" lengthAdjust="spacing" textLength="222" x="27" y="532.3613">DeliveryID: int (PK, Auto Increment)</text><text fill="#000000" font-family="sans-serif" font-size="14" lengthAdjust="spacing" textLength="105" x="27" y="549.9707">OrderID: int (FK)</text><text fill="#000000" font-family="sans-serif" font-size="14" lengthAdjust="spacing" textLength="106" x="27" y="567.5801">RouteID: int (FK)</text></g><!--class Route--><g id="elem_Route"><rect codeLine="40" fill="#F1F1F1" height="131.6563" id="Route" rx="2.5" ry="2.5" style="stroke:#181818;stroke-width:0.5;" width="235" x="13.5" y="635"/><text fill="#000000" font-family="sans-serif" font-size="14" lengthAdjust="spacing" textLength="38" x="112" y="654.5332">Route</text><line style="stroke:#181818;stroke-width:0.5;" x1="14.5" x2="247.5" y1="662.6094" y2="662.6094"/><text fill="#000000" font-family="sans-serif" font-size="14" lengthAdjust="spacing" textLength="105" x="19.5" y="681.1426">StartPoint: string</text><text fill="#000000" font-family="sans-serif" font-size="14" lengthAdjust="spacing" textLength="100" x="19.5" y="698.752">EndPoint: string</text><text fill="#000000" font-family="sans-serif" font-size="14" lengthAdjust="spacing" textLength="111" x="19.5" y="716.3613">Distance: decimal</text><text fill="#000000" font-family="sans-serif" font-size="14" lengthAdjust="spacing" textLength="105" x="19.5" y="733.9707">TravelTime: time</text><line style="stroke:#181818;stroke-width:0.5;" x1="14.5" x2="247.5" y1="741.0469" y2="741.0469"/><ellipse cx="24.5" cy="755.3516" fill="#000000" rx="3" ry="3" style="stroke:#000000;stroke-width:1.0;"/><text fill="#000000" font-family="sans-serif" font-size="14" lengthAdjust="spacing" textLength="209" x="33.5" y="759.5801">RouteID: int (PK, Auto Increment)</text></g><!--class Inventory--><g id="elem_Inventory"><rect codeLine="48" fill="#F1F1F1" height="114.0469" id="Inventory" rx="2.5" ry="2.5" style="stroke:#181818;stroke-width:0.5;" width="255" x="1031.5" y="644"/><text fill="#000000" font-family="sans-serif" font-size="14" lengthAdjust="spacing" textLength="58" x="1130" y="663.5332">Inventory</text><line style="stroke:#181818;stroke-width:0.5;" x1="1032.5" x2="1285.5" y1="671.6094" y2="671.6094"/><text fill="#000000" font-family="sans-serif" font-size="14" lengthAdjust="spacing" textLength="76" x="1037.5" y="690.1426">Quantity: int</text><text fill="#000000" font-family="sans-serif" font-size="14" lengthAdjust="spacing" textLength="150" x="1037.5" y="707.752">InventoryDate: datetime</text><line style="stroke:#181818;stroke-width:0.5;" x1="1032.5" x2="1285.5" y1="714.8281" y2="714.8281"/><ellipse cx="1042.5" cy="729.1328" fill="#000000" rx="3" ry="3" style="stroke:#000000;stroke-width:1.0;"/><text fill="#000000" font-family="sans-serif" font-size="14" lengthAdjust="spacing" textLength="229" x="1051.5" y="733.3613">InventoryID: int (PK, Auto Increment)</text><text fill="#000000" font-family="sans-serif" font-size="14" lengthAdjust="spacing" textLength="117" x="1051.5" y="750.9707">ProductID: int (FK)</text></g><!--class Payment--><g id="elem_Payment"><rect codeLine="55" fill="#F1F1F1" height="131.6563" id="Payment" rx="2.5" ry="2.5" style="stroke:#181818;stroke-width:0.5;" width="252" x="290" y="443"/><text fill="#000000" font-family="sans-serif" font-size="14" lengthAdjust="spacing" textLength="55" x="388.5" y="462.5332">Payment</text><line style="stroke:#181818;stroke-width:0.5;" x1="291" x2="541" y1="470.6094" y2="470.6094"/><text fill="#000000" font-family="sans-serif" font-size="14" lengthAdjust="spacing" textLength="147" x="296" y="489.1426">PaymentDate: datetime</text><text fill="#000000" font-family="sans-serif" font-size="14" lengthAdjust="spacing" textLength="138" x="296" y="506.752">PaymentStatus: string</text><line style="stroke:#181818;stroke-width:0.5;" x1="291" x2="541" y1="513.8281" y2="513.8281"/><ellipse cx="301" cy="528.1328" fill="#000000" rx="3" ry="3" style="stroke:#000000;stroke-width:1.0;"/><text fill="#000000" font-family="sans-serif" font-size="14" lengthAdjust="spacing" textLength="226" x="310" y="532.3613">PaymentID: int (PK, Auto Increment)</text><text fill="#000000" font-family="sans-serif" font-size="14" lengthAdjust="spacing" textLength="105" x="310" y="549.9707">OrderID: int (FK)</text><text fill="#000000" font-family="sans-serif" font-size="14" lengthAdjust="spacing" textLength="150" x="310" y="567.5801">Amount: decimal (10, 2)</text></g><!--class Tracking--><g id="elem_Tracking"><rect codeLine="63" fill="#F1F1F1" height="131.6563" id="Tracking" rx="2.5" ry="2.5" style="stroke:#181818;stroke-width:0.5;" width="252" x="577" y="443"/><text fill="#000000" font-family="sans-serif" font-size="14" lengthAdjust="spacing" textLength="55" x="675.5" y="462.5332">Tracking</text><line style="stroke:#181818;stroke-width:0.5;" x1="578" x2="828" y1="470.6094" y2="470.6094"/><text fill="#000000" font-family="sans-serif" font-size="14" lengthAdjust="spacing" textLength="145" x="583" y="489.1426">CurrentLocation: string</text><text fill="#000000" font-family="sans-serif" font-size="14" lengthAdjust="spacing" textLength="168" x="583" y="506.752">UpdateDateTime: datetime</text><text fill="#000000" font-family="sans-serif" font-size="14" lengthAdjust="spacing" textLength="138" x="583" y="524.3613">TrackingStatus: string</text><line style="stroke:#181818;stroke-width:0.5;" x1="578" x2="828" y1="531.4375" y2="531.4375"/><ellipse cx="588" cy="545.7422" fill="#000000" rx="3" ry="3" style="stroke:#000000;stroke-width:1.0;"/><text fill="#000000" font-family="sans-serif" font-size="14" lengthAdjust="spacing" textLength="226" x="597" y="549.9707">TrackingID: int (PK, Auto Increment)</text><text fill="#000000" font-family="sans-serif" font-size="14" lengthAdjust="spacing" textLength="105" x="597" y="567.5801">OrderID: int (FK)</text></g><!--class Stock--><g id="elem_Stock"><rect codeLine="71" fill="#F1F1F1" height="114.0469" id="Stock" rx="2.5" ry="2.5" style="stroke:#181818;stroke-width:0.5;" width="232" x="1043" y="452"/><text fill="#000000" font-family="sans-serif" font-size="14" lengthAdjust="spacing" textLength="35" x="1141.5" y="471.5332">Stock</text><line style="stroke:#181818;stroke-width:0.5;" x1="1044" x2="1274" y1="479.6094" y2="479.6094"/><text fill="#000000" font-family="sans-serif" font-size="14" lengthAdjust="spacing" textLength="122" x="1049" y="498.1426">QuantityInStock: int</text><text fill="#000000" font-family="sans-serif" font-size="14" lengthAdjust="spacing" textLength="142" x="1049" y="515.752">LastUpdated: datetime</text><line style="stroke:#181818;stroke-width:0.5;" x1="1044" x2="1274" y1="522.8281" y2="522.8281"/><ellipse cx="1054" cy="537.1328" fill="#000000" rx="3" ry="3" style="stroke:#000000;stroke-width:1.0;"/><text fill="#000000" font-family="sans-serif" font-size="14" lengthAdjust="spacing" textLength="206" x="1063" y="541.3613">StockID: int (PK, Auto Increment)</text><text fill="#000000" font-family="sans-serif" font-size="14" lengthAdjust="spacing" textLength="117" x="1063" y="558.9707">ProductID: int (FK)</text></g><!--class OrderProduct--><g id="elem_OrderProduct"><rect codeLine="89" fill="#F1F1F1" height="78.8281" id="OrderProduct" rx="2.5" ry="2.5" style="stroke:#181818;stroke-width:0.5;" width="143" x="864.5" y="469.5"/><text fill="#000000" font-family="sans-serif" font-size="14" lengthAdjust="spacing" textLength="86" x="893" y="489.0332">OrderProduct</text><line style="stroke:#181818;stroke-width:0.5;" x1="865.5" x2="1006.5" y1="497.1094" y2="497.1094"/><line style="stroke:#181818;stroke-width:0.5;" x1="865.5" x2="1006.5" y1="505.1094" y2="505.1094"/><ellipse cx="875.5" cy="519.4141" fill="#000000" rx="3" ry="3" style="stroke:#000000;stroke-width:1.0;"/><text fill="#000000" font-family="sans-serif" font-size="14" lengthAdjust="spacing" textLength="105" x="884.5" y="523.6426">OrderID: int (FK)</text><ellipse cx="875.5" cy="537.0234" fill="#000000" rx="3" ry="3" style="stroke:#000000;stroke-width:1.0;"/><text fill="#000000" font-family="sans-serif" font-size="14" lengthAdjust="spacing" textLength="117" x="884.5" y="541.252">ProductID: int (FK)</text></g><!--link User to Order--><g id="link_User_Order"><path codeLine="79" d="M621,199.14 C621,222.49 621,220.91 621,241.95 " fill="none" id="User-Order" style="stroke:#181818;stroke-width:1.0;"/><line style="stroke:#181818;stroke-width:1.0;" x1="617" x2="625" y1="195.14" y2="195.14"/><line style="stroke:#181818;stroke-width:1.0;" x1="617" x2="625" y1="198.14" y2="198.14"/><line style="stroke:#181818;stroke-width:1.0;" x1="621" x2="621" y1="199.14" y2="191.14"/><line style="stroke:#181818;stroke-width:1.0;" x1="621" x2="627" y1="251.95" y2="259.95"/><line style="stroke:#181818;stroke-width:1.0;" x1="621" x2="615" y1="251.95" y2="259.95"/><line style="stroke:#181818;stroke-width:1.0;" x1="621" x2="621" y1="251.95" y2="259.95"/><ellipse cx="621" cy="245.95" fill="none" rx="4" ry="4" style="stroke:#181818;stroke-width:1.0;"/><text fill="#000000" font-family="sans-serif" font-size="13" lengthAdjust="spacing" textLength="24" x="596" y="222.0351">1..N</text></g><!--link Order to Delivery--><g id="link_Order_Delivery"><path codeLine="81" d="M495.94,317 C351,317 131,317 131,317 C131,317 131,379.39 131,434.92 " fill="none" id="Order-Delivery" style="stroke:#181818;stroke-width:1.0;"/><line style="stroke:#181818;stroke-width:1.0;" x1="499.94" x2="499.94" y1="313" y2="321"/><line style="stroke:#181818;stroke-width:1.0;" x1="496.94" x2="496.94" y1="313" y2="321"/><line style="stroke:#181818;stroke-width:1.0;" x1="495.94" x2="503.94" y1="317" y2="317"/><line style="stroke:#181818;stroke-width:1.0;" x1="135" x2="127" y1="438.92" y2="438.92"/><line style="stroke:#181818;stroke-width:1.0;" x1="135" x2="127" y1="435.92" y2="435.92"/><line style="stroke:#181818;stroke-width:1.0;" x1="131" x2="131" y1="434.92" y2="442.92"/><text fill="#000000" font-family="sans-serif" font-size="13" lengthAdjust="spacing" textLength="22" x="231.51" y="313.4951">1..1</text></g><!--link Delivery to Route--><g id="link_Delivery_Route"><path codeLine="82" d="M131,583.08 C131,602.38 131,607.49 131,626.8 " fill="none" id="Delivery-Route" style="stroke:#181818;stroke-width:1.0;"/><line style="stroke:#181818;stroke-width:1.0;" x1="127" x2="135" y1="579.08" y2="579.08"/><line style="stroke:#181818;stroke-width:1.0;" x1="127" x2="135" y1="582.08" y2="582.08"/><line style="stroke:#181818;stroke-width:1.0;" x1="131" x2="131" y1="583.08" y2="575.08"/><line style="stroke:#181818;stroke-width:1.0;" x1="135" x2="127" y1="630.8" y2="630.8"/><line style="stroke:#181818;stroke-width:1.0;" x1="135" x2="127" y1="627.8" y2="627.8"/><line style="stroke:#181818;stroke-width:1.0;" x1="131" x2="131" y1="626.8" y2="634.8"/><text fill="#000000" font-family="sans-serif" font-size="13" lengthAdjust="spacing" textLength="22" x="108" y="601.4351">1..1</text></g><!--link Product to Stock--><g id="link_Product_Stock"><path codeLine="83" d="M1092,391.08 C1092,413.42 1092,422.17 1092,443.77 " fill="none" id="Product-Stock" style="stroke:#181818;stroke-width:1.0;"/><line style="stroke:#181818;stroke-width:1.0;" x1="1088" x2="1096" y1="387.08" y2="387.08"/><line style="stroke:#181818;stroke-width:1.0;" x1="1088" x2="1096" y1="390.08" y2="390.08"/><line style="stroke:#181818;stroke-width:1.0;" x1="1092" x2="1092" y1="391.08" y2="383.08"/><line style="stroke:#181818;stroke-width:1.0;" x1="1096" x2="1088" y1="447.77" y2="447.77"/><line style="stroke:#181818;stroke-width:1.0;" x1="1096" x2="1088" y1="444.77" y2="444.77"/><line style="stroke:#181818;stroke-width:1.0;" x1="1092" x2="1092" y1="443.77" y2="451.77"/><text fill="#000000" font-family="sans-serif" font-size="13" lengthAdjust="spacing" textLength="22" x="1069" y="413.9151">1..1</text></g><!--link Stock to Inventory--><g id="link_Stock_Inventory"><path codeLine="84" d="M1159,574.09 C1159,598.63 1159,601.25 1159,625.8 " fill="none" id="Stock-Inventory" style="stroke:#181818;stroke-width:1.0;"/><line style="stroke:#181818;stroke-width:1.0;" x1="1155" x2="1163" y1="570.09" y2="570.09"/><line style="stroke:#181818;stroke-width:1.0;" x1="1155" x2="1163" y1="573.09" y2="573.09"/><line style="stroke:#181818;stroke-width:1.0;" x1="1159" x2="1159" y1="574.09" y2="566.09"/><line style="stroke:#181818;stroke-width:1.0;" x1="1159" x2="1165" y1="635.8" y2="643.8"/><line style="stroke:#181818;stroke-width:1.0;" x1="1159" x2="1153" y1="635.8" y2="643.8"/><line style="stroke:#181818;stroke-width:1.0;" x1="1159" x2="1159" y1="635.8" y2="643.8"/><ellipse cx="1159" cy="629.8" fill="none" rx="4" ry="4" style="stroke:#181818;stroke-width:1.0;"/><text fill="#000000" font-family="sans-serif" font-size="13" lengthAdjust="spacing" textLength="24" x="1134" y="601.4351">1..N</text></g><!--link Order to Payment--><g id="link_Order_Payment"><path codeLine="85" d="M523,382.09 C523,403.64 523,412.35 523,434.68 " fill="none" id="Order-Payment" style="stroke:#181818;stroke-width:1.0;"/><line style="stroke:#181818;stroke-width:1.0;" x1="519" x2="527" y1="378.09" y2="378.09"/><line style="stroke:#181818;stroke-width:1.0;" x1="519" x2="527" y1="381.09" y2="381.09"/><line style="stroke:#181818;stroke-width:1.0;" x1="523" x2="523" y1="382.09" y2="374.09"/><line style="stroke:#181818;stroke-width:1.0;" x1="527" x2="519" y1="438.68" y2="438.68"/><line style="stroke:#181818;stroke-width:1.0;" x1="527" x2="519" y1="435.68" y2="435.68"/><line style="stroke:#181818;stroke-width:1.0;" x1="523" x2="523" y1="434.68" y2="442.68"/><text fill="#000000" font-family="sans-serif" font-size="13" lengthAdjust="spacing" textLength="22" x="500" y="404.8751">1..1</text></g><!--link Order to Tracking--><g id="link_Order_Tracking"><path codeLine="86" d="M657.5,382.09 C657.5,403.64 657.5,402.35 657.5,424.68 " fill="none" id="Order-Tracking" style="stroke:#181818;stroke-width:1.0;"/><line style="stroke:#181818;stroke-width:1.0;" x1="653.5" x2="661.5" y1="378.09" y2="378.09"/><line style="stroke:#181818;stroke-width:1.0;" x1="653.5" x2="661.5" y1="381.09" y2="381.09"/><line style="stroke:#181818;stroke-width:1.0;" x1="657.5" x2="657.5" y1="382.09" y2="374.09"/><line style="stroke:#181818;stroke-width:1.0;" x1="657.5" x2="663.5" y1="434.68" y2="442.68"/><line style="stroke:#181818;stroke-width:1.0;" x1="657.5" x2="651.5" y1="434.68" y2="442.68"/><line style="stroke:#181818;stroke-width:1.0;" x1="657.5" x2="657.5" y1="434.68" y2="442.68"/><ellipse cx="657.5" cy="428.68" fill="none" rx="4" ry="4" style="stroke:#181818;stroke-width:1.0;"/><text fill="#000000" font-family="sans-serif" font-size="13" lengthAdjust="spacing" textLength="24" x="632.5" y="404.8751">1..N</text></g><!--link Order to OrderProduct--><g id="link_Order_OrderProduct"><path codeLine="94" d="M746.26,317 C814.72,317 879.75,317 879.75,317 C879.75,317 879.75,394.98 879.75,451.22 " fill="none" id="Order-OrderProduct" style="stroke:#181818;stroke-width:1.0;"/><line style="stroke:#181818;stroke-width:1.0;" x1="742.26" x2="742.26" y1="321" y2="313"/><line style="stroke:#181818;stroke-width:1.0;" x1="745.26" x2="745.26" y1="321" y2="313"/><line style="stroke:#181818;stroke-width:1.0;" x1="746.26" x2="738.26" y1="317" y2="317"/><line style="stroke:#181818;stroke-width:1.0;" x1="879.75" x2="885.75" y1="461.22" y2="469.22"/><line style="stroke:#181818;stroke-width:1.0;" x1="879.75" x2="873.75" y1="461.22" y2="469.22"/><line style="stroke:#181818;stroke-width:1.0;" x1="879.75" x2="879.75" y1="461.22" y2="469.22"/><ellipse cx="879.75" cy="455.22" fill="none" rx="4" ry="4" style="stroke:#181818;stroke-width:1.0;"/><text fill="#000000" font-family="sans-serif" font-size="13" lengthAdjust="spacing" textLength="24" x="854.75" y="318.8551">1..N</text></g><!--link Product to OrderProduct--><g id="link_Product_OrderProduct"><path codeLine="95" d="M951.25,391.08 C951.25,419.82 951.25,426.54 951.25,451.43 " fill="none" id="Product-OrderProduct" style="stroke:#181818;stroke-width:1.0;"/><line style="stroke:#181818;stroke-width:1.0;" x1="947.25" x2="955.25" y1="387.08" y2="387.08"/><line style="stroke:#181818;stroke-width:1.0;" x1="947.25" x2="955.25" y1="390.08" y2="390.08"/><line style="stroke:#181818;stroke-width:1.0;" x1="951.25" x2="951.25" y1="391.08" y2="383.08"/><line style="stroke:#181818;stroke-width:1.0;" x1="951.25" x2="957.25" y1="461.43" y2="469.43"/><line style="stroke:#181818;stroke-width:1.0;" x1="951.25" x2="945.25" y1="461.43" y2="469.43"/><line style="stroke:#181818;stroke-width:1.0;" x1="951.25" x2="951.25" y1="461.43" y2="469.43"/><ellipse cx="951.25" cy="455.43" fill="none" rx="4" ry="4" style="stroke:#181818;stroke-width:1.0;"/><text fill="#000000" font-family="sans-serif" font-size="13" lengthAdjust="spacing" textLength="24" x="926.25" y="422.7451">1..N</text></g><!--SRC=[fLNDRjim3BxxAOHSsXLjiUoOMx1iGD0kovhs0JHRQ8JQKY3B6O8cmDe26tRA4mp3tY0T-hTropF8RpJAicmvFmZMNGoHbCYF7sbo2wclQfPUf9VfHpLNFzKlDKDgdbw2S0sgcRfJj-gFUaYdNfy61FbK-27nuZFA1bZW28MK4JaQ4CI5x7FFsqBgUtgLVe57S-rNFNY4IIf7w2Gc0frx2EteKxlLG9H9jDqzs4NDH7BKPhuW4Ln-1dSwE28D54j1sIc8lKImgkPLX6deoDq-PwIJHE-9SBGj4j8X4QDc40WIn-vz7CSVk0WSrH4FomWJv5dWRqLWaMV73T0hsRq-qAhiMGjBS1_0LzA8M6rFOfcKm2P5rAxWGU9B4pSN_esq5ebzGGUISkOcBgYlSH2VHZX4s_Ndk-Y5VjsJt3zxb-0il0E_X6JPD9Yij05KbJB3nn5F95dGMNTBD5d3MgOoRmPJrV5gGE17o2w76suxiM1HrQAnnCpX2dJ70Wz9U4mrpncy4aMR3U74BJk5k07DOcKD6PKoW5nuMs37QHSyqYxpTZ724ohJZ7YYMLXkZzpdKdbo_Thg06K-J8jJWynAJu3sCX42p8VSnmijVJBGU3GoKna7dOst5bxMzGPRTlolShLPviDMxH37qc0BgZNJGrBzIAVg7iPZDXV7uxqzVfwFcWQgrVVtEpNFCx8sZiVbxsVizPfNQF8Rvayep7Q4v5QJQc4rOXwuxDuYU2MsRQ_YTMc5rqMDI-IGuhTif_o61N876m5MIlePji8idI8GPkfQFS9U-QGNperwrDeBombwq-WWyrBTf5SvBQ3FCwfCvigWNDKuEwkADl6gALHS5Mcu3Awzz1S0]--></g></svg>