<?xml version="1.0" encoding="us-ascii" standalone="no"?><svg xmlns="http://www.w3.org/2000/svg" xmlns:xlink="http://www.w3.org/1999/xlink" contentStyleType="text/css" height="755px" preserveAspectRatio="none" style="width:1289px;height:755px;background:#FFFFFF;" version="1.1" viewBox="0 0 1289 755" width="1289px" zoomAndPan="magnify"><defs/><g><!--class User--><g id="elem_User"><rect codeLine="6" fill="#F1F1F1" height="184.4844" id="User" rx="2.5" ry="2.5" style="stroke:#181818;stroke-width:0.5;" width="226" x="508" y="7"/><text fill="#000000" font-family="sans-serif" font-size="14" lengthAdjust="spacing" textLength="29" x="606.5" y="26.5332">User</text><line style="stroke:#181818;stroke-width:0.5;" x1="509" x2="733" y1="34.6094" y2="34.6094"/><text fill="#000000" font-family="sans-serif" font-size="14" lengthAdjust="spacing" textLength="79" x="514" y="53.1426">Name: string</text><text fill="#000000" font-family="sans-serif" font-size="14" lengthAdjust="spacing" textLength="100" x="514" y="70.752">Surname: string</text><text fill="#000000" font-family="sans-serif" font-size="14" lengthAdjust="spacing" textLength="77" x="514" y="88.3613">Email: string</text><text fill="#000000" font-family="sans-serif" font-size="14" lengthAdjust="spacing" textLength="133" x="514" y="105.9707">PhoneNumber: string</text><text fill="#000000" font-family="sans-serif" font-size="14" lengthAdjust="spacing" textLength="146" x="514" y="123.5801">DeliveryAddress: string</text><text fill="#000000" font-family="sans-serif" font-size="14" lengthAdjust="spacing" textLength="104" x="514" y="141.1895">Password: string</text><text fill="#000000" font-family="sans-serif" font-size="14" lengthAdjust="spacing" textLength="72" x="514" y="158.7988">Role: string</text><line style="stroke:#181818;stroke-width:0.5;" x1="509" x2="733" y1="165.875" y2="165.875"/><ellipse cx="519" cy="180.1797" fill="#000000" rx="3" ry="3" style="stroke:#000000;stroke-width:1.0;"/><text fill="#000000" font-family="sans-serif" font-size="14" lengthAdjust="spacing" textLength="200" x="528" y="184.4082">UserID: int (PK, Auto Increment)</text></g><!--class Order--><g id="elem_Order"><rect codeLine="17" fill="#F1F1F1" height="114.0469" id="Order" rx="2.5" ry="2.5" style="stroke:#181818;stroke-width:0.5;" width="234" x="504" y="251"/><text fill="#000000" font-family="sans-serif" font-size="14" lengthAdjust="spacing" textLength="37" x="602.5" y="270.5332">Order</text><line style="stroke:#181818;stroke-width:0.5;" x1="505" x2="737" y1="278.6094" y2="278.6094"/><text fill="#000000" font-family="sans-serif" font-size="14" lengthAdjust="spacing" textLength="129" x="510" y="297.1426">OrderDate: datetime</text><text fill="#000000" font-family="sans-serif" font-size="14" lengthAdjust="spacing" textLength="120" x="510" y="314.752">OrderStatus: string</text><line style="stroke:#181818;stroke-width:0.5;" x1="505" x2="737" y1="321.8281" y2="321.8281"/><ellipse cx="515" cy="336.1328" fill="#000000" rx="3" ry="3" style="stroke:#000000;stroke-width:1.0;"/><text fill="#000000" font-family="sans-serif" font-size="14" lengthAdjust="spacing" textLength="208" x="524" y="340.3613">OrderID: int (PK, Auto Increment)</text><text fill="#000000" font-family="sans-serif" font-size="14" lengthAdjust="spacing" textLength="97" x="524" y="357.9707">UserID: int (FK)</text></g><!--class Product--><g id="elem_Product"><rect codeLine="24" fill="#F1F1F1" height="114.0469" id="Product" rx="2.5" ry="2.5" style="stroke:#181818;stroke-width:0.5;" width="246" x="895" y="251"/><text fill="#000000" font-family="sans-serif" font-size="14" lengthAdjust="spacing" textLength="49" x="993.5" y="270.5332">Product</text><line style="stroke:#181818;stroke-width:0.5;" x1="896" x2="1140" y1="278.6094" y2="278.6094"/><text fill="#000000" font-family="sans-serif" font-size="14" lengthAdjust="spacing" textLength="79" x="901" y="297.1426">Name: string</text><text fill="#000000" font-family="sans-serif" font-size="14" lengthAdjust="spacing" textLength="114" x="901" y="314.752">Description: string</text><line style="stroke:#181818;stroke-width:0.5;" x1="896" x2="1140" y1="321.8281" y2="321.8281"/><ellipse cx="906" cy="336.1328" fill="#000000" rx="3" ry="3" style="stroke:#000000;stroke-width:1.0;"/><text fill="#000000" font-family="sans-serif" font-size="14" lengthAdjust="spacing" textLength="220" x="915" y="340.3613">ProductID: int (PK, Auto Increment)</text><text fill="#000000" font-family="sans-serif" font-size="14" lengthAdjust="spacing" textLength="134" x="915" y="357.9707">Price: decimal (10, 2)</text></g><!--class Delivery--><g id="elem_Delivery"><rect codeLine="31" fill="#F1F1F1" height="131.6563" id="Delivery" rx="2.5" ry="2.5" style="stroke:#181818;stroke-width:0.5;" width="248" x="7" y="425"/><text fill="#000000" font-family="sans-serif" font-size="14" lengthAdjust="spacing" textLength="51" x="105.5" y="444.5332">Delivery</text><line style="stroke:#181818;stroke-width:0.5;" x1="8" x2="254" y1="452.6094" y2="452.6094"/><text fill="#000000" font-family="sans-serif" font-size="14" lengthAdjust="spacing" textLength="143" x="13" y="471.1426">DeliveryDate: datetime</text><text fill="#000000" font-family="sans-serif" font-size="14" lengthAdjust="spacing" textLength="134" x="13" y="488.752">DeliveryStatus: string</text><line style="stroke:#181818;stroke-width:0.5;" x1="8" x2="254" y1="495.8281" y2="495.8281"/><ellipse cx="18" cy="510.1328" fill="#000000" rx="3" ry="3" style="stroke:#000000;stroke-width:1.0;"/><text fill="#000000" font-family="sans-serif" font-size="14" lengthAdjust="spacing" textLength="222" x="27" y="514.3613">DeliveryID: int (PK, Auto Increment)</text><text fill="#000000" font-family="sans-serif" font-size="14" lengthAdjust="spacing" textLength="105" x="27" y="531.9707">OrderID: int (FK)</text><text fill="#000000" font-family="sans-serif" font-size="14" lengthAdjust="spacing" textLength="106" x="27" y="549.5801">RouteID: int (FK)</text></g><!--class Route--><g id="elem_Route"><rect codeLine="39" fill="#F1F1F1" height="131.6563" id="Route" rx="2.5" ry="2.5" style="stroke:#181818;stroke-width:0.5;" width="235" x="13.5" y="617"/><text fill="#000000" font-family="sans-serif" font-size="14" lengthAdjust="spacing" textLength="38" x="112" y="636.5332">Route</text><line style="stroke:#181818;stroke-width:0.5;" x1="14.5" x2="247.5" y1="644.6094" y2="644.6094"/><text fill="#000000" font-family="sans-serif" font-size="14" lengthAdjust="spacing" textLength="105" x="19.5" y="663.1426">StartPoint: string</text><text fill="#000000" font-family="sans-serif" font-size="14" lengthAdjust="spacing" textLength="100" x="19.5" y="680.752">EndPoint: string</text><text fill="#000000" font-family="sans-serif" font-size="14" lengthAdjust="spacing" textLength="111" x="19.5" y="698.3613">Distance: decimal</text><text fill="#000000" font-family="sans-serif" font-size="14" lengthAdjust="spacing" textLength="105" x="19.5" y="715.9707">TravelTime: time</text><line style="stroke:#181818;stroke-width:0.5;" x1="14.5" x2="247.5" y1="723.0469" y2="723.0469"/><ellipse cx="24.5" cy="737.3516" fill="#000000" rx="3" ry="3" style="stroke:#000000;stroke-width:1.0;"/><text fill="#000000" font-family="sans-serif" font-size="14" lengthAdjust="spacing" textLength="209" x="33.5" y="741.5801">RouteID: int (PK, Auto Increment)</text></g><!--class Storage--><g id="elem_Storage"><rect codeLine="47" fill="#F1F1F1" height="96.4375" id="Storage" rx="2.5" ry="2.5" style="stroke:#181818;stroke-width:0.5;" width="247" x="1035.5" y="635"/><text fill="#000000" font-family="sans-serif" font-size="14" lengthAdjust="spacing" textLength="50" x="1134" y="654.5332">Storage</text><line style="stroke:#181818;stroke-width:0.5;" x1="1036.5" x2="1281.5" y1="662.6094" y2="662.6094"/><text fill="#000000" font-family="sans-serif" font-size="14" lengthAdjust="spacing" textLength="79" x="1041.5" y="681.1426">Name: string</text><text fill="#000000" font-family="sans-serif" font-size="14" lengthAdjust="spacing" textLength="97" x="1041.5" y="698.752">Location: string</text><line style="stroke:#181818;stroke-width:0.5;" x1="1036.5" x2="1281.5" y1="705.8281" y2="705.8281"/><ellipse cx="1046.5" cy="720.1328" fill="#000000" rx="3" ry="3" style="stroke:#000000;stroke-width:1.0;"/><text fill="#000000" font-family="sans-serif" font-size="14" lengthAdjust="spacing" textLength="221" x="1055.5" y="724.3613">StorageID: int (PK, Auto Increment)</text></g><!--class Payment--><g id="elem_Payment"><rect codeLine="53" fill="#F1F1F1" height="131.6563" id="Payment" rx="2.5" ry="2.5" style="stroke:#181818;stroke-width:0.5;" width="252" x="290" y="425"/><text fill="#000000" font-family="sans-serif" font-size="14" lengthAdjust="spacing" textLength="55" x="388.5" y="444.5332">Payment</text><line style="stroke:#181818;stroke-width:0.5;" x1="291" x2="541" y1="452.6094" y2="452.6094"/><text fill="#000000" font-family="sans-serif" font-size="14" lengthAdjust="spacing" textLength="147" x="296" y="471.1426">PaymentDate: datetime</text><text fill="#000000" font-family="sans-serif" font-size="14" lengthAdjust="spacing" textLength="138" x="296" y="488.752">PaymentStatus: string</text><line style="stroke:#181818;stroke-width:0.5;" x1="291" x2="541" y1="495.8281" y2="495.8281"/><ellipse cx="301" cy="510.1328" fill="#000000" rx="3" ry="3" style="stroke:#000000;stroke-width:1.0;"/><text fill="#000000" font-family="sans-serif" font-size="14" lengthAdjust="spacing" textLength="226" x="310" y="514.3613">PaymentID: int (PK, Auto Increment)</text><text fill="#000000" font-family="sans-serif" font-size="14" lengthAdjust="spacing" textLength="105" x="310" y="531.9707">OrderID: int (FK)</text><text fill="#000000" font-family="sans-serif" font-size="14" lengthAdjust="spacing" textLength="150" x="310" y="549.5801">Amount: decimal (10, 2)</text></g><!--class Tracking--><g id="elem_Tracking"><rect codeLine="61" fill="#F1F1F1" height="131.6563" id="Tracking" rx="2.5" ry="2.5" style="stroke:#181818;stroke-width:0.5;" width="252" x="577" y="425"/><text fill="#000000" font-family="sans-serif" font-size="14" lengthAdjust="spacing" textLength="55" x="675.5" y="444.5332">Tracking</text><line style="stroke:#181818;stroke-width:0.5;" x1="578" x2="828" y1="452.6094" y2="452.6094"/><text fill="#000000" font-family="sans-serif" font-size="14" lengthAdjust="spacing" textLength="145" x="583" y="471.1426">CurrentLocation: string</text><text fill="#000000" font-family="sans-serif" font-size="14" lengthAdjust="spacing" textLength="168" x="583" y="488.752">UpdateDateTime: datetime</text><text fill="#000000" font-family="sans-serif" font-size="14" lengthAdjust="spacing" textLength="138" x="583" y="506.3613">TrackingStatus: string</text><line style="stroke:#181818;stroke-width:0.5;" x1="578" x2="828" y1="513.4375" y2="513.4375"/><ellipse cx="588" cy="527.7422" fill="#000000" rx="3" ry="3" style="stroke:#000000;stroke-width:1.0;"/><text fill="#000000" font-family="sans-serif" font-size="14" lengthAdjust="spacing" textLength="226" x="597" y="531.9707">TrackingID: int (PK, Auto Increment)</text><text fill="#000000" font-family="sans-serif" font-size="14" lengthAdjust="spacing" textLength="105" x="597" y="549.5801">OrderID: int (FK)</text></g><!--class Stock--><g id="elem_Stock"><rect codeLine="69" fill="#F1F1F1" height="131.6563" id="Stock" rx="2.5" ry="2.5" style="stroke:#181818;stroke-width:0.5;" width="232" x="1043" y="425"/><text fill="#000000" font-family="sans-serif" font-size="14" lengthAdjust="spacing" textLength="35" x="1141.5" y="444.5332">Stock</text><line style="stroke:#181818;stroke-width:0.5;" x1="1044" x2="1274" y1="452.6094" y2="452.6094"/><text fill="#000000" font-family="sans-serif" font-size="14" lengthAdjust="spacing" textLength="122" x="1049" y="471.1426">QuantityInStock: int</text><text fill="#000000" font-family="sans-serif" font-size="14" lengthAdjust="spacing" textLength="142" x="1049" y="488.752">LastUpdated: datetime</text><line style="stroke:#181818;stroke-width:0.5;" x1="1044" x2="1274" y1="495.8281" y2="495.8281"/><ellipse cx="1054" cy="510.1328" fill="#000000" rx="3" ry="3" style="stroke:#000000;stroke-width:1.0;"/><text fill="#000000" font-family="sans-serif" font-size="14" lengthAdjust="spacing" textLength="206" x="1063" y="514.3613">StockID: int (PK, Auto Increment)</text><text fill="#000000" font-family="sans-serif" font-size="14" lengthAdjust="spacing" textLength="117" x="1063" y="531.9707">ProductID: int (FK)</text><text fill="#000000" font-family="sans-serif" font-size="14" lengthAdjust="spacing" textLength="118" x="1063" y="549.5801">StorageID: int (FK)</text></g><!--class OrderItems--><g id="elem_OrderItems"><rect codeLine="88" fill="#F1F1F1" height="114.0469" id="OrderItems" rx="2.5" ry="2.5" style="stroke:#181818;stroke-width:0.5;" width="143" x="864.5" y="434"/><text fill="#000000" font-family="sans-serif" font-size="14" lengthAdjust="spacing" textLength="70" x="901" y="453.5332">OrderItems</text><line style="stroke:#181818;stroke-width:0.5;" x1="865.5" x2="1006.5" y1="461.6094" y2="461.6094"/><text fill="#000000" font-family="sans-serif" font-size="14" lengthAdjust="spacing" textLength="53" x="870.5" y="480.1426">Quantity</text><text fill="#000000" font-family="sans-serif" font-size="14" lengthAdjust="spacing" textLength="40" x="870.5" y="497.752">Status</text><line style="stroke:#181818;stroke-width:0.5;" x1="865.5" x2="1006.5" y1="504.8281" y2="504.8281"/><ellipse cx="875.5" cy="519.1328" fill="#000000" rx="3" ry="3" style="stroke:#000000;stroke-width:1.0;"/><text fill="#000000" font-family="sans-serif" font-size="14" lengthAdjust="spacing" textLength="105" x="884.5" y="523.3613">OrderID: int (FK)</text><ellipse cx="875.5" cy="536.7422" fill="#000000" rx="3" ry="3" style="stroke:#000000;stroke-width:1.0;"/><text fill="#000000" font-family="sans-serif" font-size="14" lengthAdjust="spacing" textLength="117" x="884.5" y="540.9707">ProductID: int (FK)</text></g><!--link User to Order--><g id="link_User_Order"><path codeLine="78" d="M621,199.28 C621,219.51 621,214.36 621,232.74 " fill="none" id="User-Order" style="stroke:#181818;stroke-width:1.0;"/><line style="stroke:#181818;stroke-width:1.0;" x1="617" x2="625" y1="195.28" y2="195.28"/><line style="stroke:#181818;stroke-width:1.0;" x1="617" x2="625" y1="198.28" y2="198.28"/><line style="stroke:#181818;stroke-width:1.0;" x1="621" x2="621" y1="199.28" y2="191.28"/><line style="stroke:#181818;stroke-width:1.0;" x1="621" x2="627" y1="242.74" y2="250.74"/><line style="stroke:#181818;stroke-width:1.0;" x1="621" x2="615" y1="242.74" y2="250.74"/><line style="stroke:#181818;stroke-width:1.0;" x1="621" x2="621" y1="242.74" y2="250.74"/><ellipse cx="621" cy="236.74" fill="none" rx="4" ry="4" style="stroke:#181818;stroke-width:1.0;"/><text fill="#000000" font-family="sans-serif" font-size="13" lengthAdjust="spacing" textLength="24" x="596" y="217.5051">1..N</text></g><!--link Order to Delivery--><g id="link_Order_Delivery"><path codeLine="80" d="M495.94,308 C351,308 131,308 131,308 C131,308 131,364.51 131,416.93 " fill="none" id="Order-Delivery" style="stroke:#181818;stroke-width:1.0;"/><line style="stroke:#181818;stroke-width:1.0;" x1="499.94" x2="499.94" y1="304" y2="312"/><line style="stroke:#181818;stroke-width:1.0;" x1="496.94" x2="496.94" y1="304" y2="312"/><line style="stroke:#181818;stroke-width:1.0;" x1="495.94" x2="503.94" y1="308" y2="308"/><line style="stroke:#181818;stroke-width:1.0;" x1="135" x2="127" y1="420.93" y2="420.93"/><line style="stroke:#181818;stroke-width:1.0;" x1="135" x2="127" y1="417.93" y2="417.93"/><line style="stroke:#181818;stroke-width:1.0;" x1="131" x2="131" y1="416.93" y2="424.93"/><text fill="#000000" font-family="sans-serif" font-size="13" lengthAdjust="spacing" textLength="24" x="234.01" y="304.4951">1..N</text></g><!--link Delivery to Route--><g id="link_Delivery_Route"><path codeLine="81" d="M131,565.08 C131,584.38 131,589.49 131,608.8 " fill="none" id="Delivery-Route" style="stroke:#181818;stroke-width:1.0;"/><line style="stroke:#181818;stroke-width:1.0;" x1="127" x2="135" y1="561.08" y2="561.08"/><line style="stroke:#181818;stroke-width:1.0;" x1="127" x2="135" y1="564.08" y2="564.08"/><line style="stroke:#181818;stroke-width:1.0;" x1="131" x2="131" y1="565.08" y2="557.08"/><line style="stroke:#181818;stroke-width:1.0;" x1="135" x2="127" y1="612.8" y2="612.8"/><line style="stroke:#181818;stroke-width:1.0;" x1="135" x2="127" y1="609.8" y2="609.8"/><line style="stroke:#181818;stroke-width:1.0;" x1="131" x2="131" y1="608.8" y2="616.8"/><text fill="#000000" font-family="sans-serif" font-size="13" lengthAdjust="spacing" textLength="22" x="108" y="583.4351">1..1</text></g><!--link Product to Stock--><g id="link_Product_Stock"><path codeLine="82" d="M1092,373.15 C1092,392.03 1092,397.19 1092,416.69 " fill="none" id="Product-Stock" style="stroke:#181818;stroke-width:1.0;"/><line style="stroke:#181818;stroke-width:1.0;" x1="1088" x2="1096" y1="369.15" y2="369.15"/><line style="stroke:#181818;stroke-width:1.0;" x1="1088" x2="1096" y1="372.15" y2="372.15"/><line style="stroke:#181818;stroke-width:1.0;" x1="1092" x2="1092" y1="373.15" y2="365.15"/><line style="stroke:#181818;stroke-width:1.0;" x1="1096" x2="1088" y1="420.69" y2="420.69"/><line style="stroke:#181818;stroke-width:1.0;" x1="1096" x2="1088" y1="417.69" y2="417.69"/><line style="stroke:#181818;stroke-width:1.0;" x1="1092" x2="1092" y1="416.69" y2="424.69"/><text fill="#000000" font-family="sans-serif" font-size="13" lengthAdjust="spacing" textLength="22" x="1069" y="391.4151">1..1</text></g><!--link Stock to Storage--><g id="link_Stock_Storage"><path codeLine="83" d="M1159,565.08 C1159,590.68 1159,593.43 1159,616.99 " fill="none" id="Stock-Storage" style="stroke:#181818;stroke-width:1.0;"/><line style="stroke:#181818;stroke-width:1.0;" x1="1155" x2="1163" y1="561.08" y2="561.08"/><line style="stroke:#181818;stroke-width:1.0;" x1="1155" x2="1163" y1="564.08" y2="564.08"/><line style="stroke:#181818;stroke-width:1.0;" x1="1159" x2="1159" y1="565.08" y2="557.08"/><line style="stroke:#181818;stroke-width:1.0;" x1="1159" x2="1165" y1="626.99" y2="634.99"/><line style="stroke:#181818;stroke-width:1.0;" x1="1159" x2="1153" y1="626.99" y2="634.99"/><line style="stroke:#181818;stroke-width:1.0;" x1="1159" x2="1159" y1="626.99" y2="634.99"/><ellipse cx="1159" cy="620.99" fill="none" rx="4" ry="4" style="stroke:#181818;stroke-width:1.0;"/><text fill="#000000" font-family="sans-serif" font-size="13" lengthAdjust="spacing" textLength="24" x="1134" y="592.5251">1..N</text></g><!--link Order to Payment--><g id="link_Order_Payment"><path codeLine="84" d="M523,373.15 C523,392.03 523,397.19 523,416.69 " fill="none" id="Order-Payment" style="stroke:#181818;stroke-width:1.0;"/><line style="stroke:#181818;stroke-width:1.0;" x1="519" x2="527" y1="369.15" y2="369.15"/><line style="stroke:#181818;stroke-width:1.0;" x1="519" x2="527" y1="372.15" y2="372.15"/><line style="stroke:#181818;stroke-width:1.0;" x1="523" x2="523" y1="373.15" y2="365.15"/><line style="stroke:#181818;stroke-width:1.0;" x1="527" x2="519" y1="420.69" y2="420.69"/><line style="stroke:#181818;stroke-width:1.0;" x1="527" x2="519" y1="417.69" y2="417.69"/><line style="stroke:#181818;stroke-width:1.0;" x1="523" x2="523" y1="416.69" y2="424.69"/><text fill="#000000" font-family="sans-serif" font-size="13" lengthAdjust="spacing" textLength="22" x="500" y="391.4151">1..1</text></g><!--link Order to Tracking--><g id="link_Order_Tracking"><path codeLine="85" d="M657.5,373.15 C657.5,392.03 657.5,387.19 657.5,406.69 " fill="none" id="Order-Tracking" style="stroke:#181818;stroke-width:1.0;"/><line style="stroke:#181818;stroke-width:1.0;" x1="653.5" x2="661.5" y1="369.15" y2="369.15"/><line style="stroke:#181818;stroke-width:1.0;" x1="653.5" x2="661.5" y1="372.15" y2="372.15"/><line style="stroke:#181818;stroke-width:1.0;" x1="657.5" x2="657.5" y1="373.15" y2="365.15"/><line style="stroke:#181818;stroke-width:1.0;" x1="657.5" x2="663.5" y1="416.69" y2="424.69"/><line style="stroke:#181818;stroke-width:1.0;" x1="657.5" x2="651.5" y1="416.69" y2="424.69"/><line style="stroke:#181818;stroke-width:1.0;" x1="657.5" x2="657.5" y1="416.69" y2="424.69"/><ellipse cx="657.5" cy="410.69" fill="none" rx="4" ry="4" style="stroke:#181818;stroke-width:1.0;"/><text fill="#000000" font-family="sans-serif" font-size="13" lengthAdjust="spacing" textLength="24" x="632.5" y="391.4151">1..N</text></g><!--link Order to OrderItems--><g id="link_Order_OrderItems"><path codeLine="95" d="M746.26,308 C814.72,308 879.75,308 879.75,308 C879.75,308 879.75,362.16 879.75,415.85 " fill="none" id="Order-OrderItems" style="stroke:#181818;stroke-width:1.0;"/><line style="stroke:#181818;stroke-width:1.0;" x1="742.26" x2="742.26" y1="312" y2="304"/><line style="stroke:#181818;stroke-width:1.0;" x1="745.26" x2="745.26" y1="312" y2="304"/><line style="stroke:#181818;stroke-width:1.0;" x1="746.26" x2="738.26" y1="308" y2="308"/><line style="stroke:#181818;stroke-width:1.0;" x1="879.75" x2="885.75" y1="425.85" y2="433.85"/><line style="stroke:#181818;stroke-width:1.0;" x1="879.75" x2="873.75" y1="425.85" y2="433.85"/><line style="stroke:#181818;stroke-width:1.0;" x1="879.75" x2="879.75" y1="425.85" y2="433.85"/><ellipse cx="879.75" cy="419.85" fill="none" rx="4" ry="4" style="stroke:#181818;stroke-width:1.0;"/><text fill="#000000" font-family="sans-serif" font-size="13" lengthAdjust="spacing" textLength="24" x="846.93" y="304.4951">N..1</text></g><!--link Product to OrderItems--><g id="link_Product_OrderItems"><path codeLine="96" d="M951.25,373.15 C951.25,395.07 951.25,394.06 951.25,415.97 " fill="none" id="Product-OrderItems" style="stroke:#181818;stroke-width:1.0;"/><line style="stroke:#181818;stroke-width:1.0;" x1="947.25" x2="955.25" y1="369.15" y2="369.15"/><line style="stroke:#181818;stroke-width:1.0;" x1="947.25" x2="955.25" y1="372.15" y2="372.15"/><line style="stroke:#181818;stroke-width:1.0;" x1="951.25" x2="951.25" y1="373.15" y2="365.15"/><line style="stroke:#181818;stroke-width:1.0;" x1="951.25" x2="957.25" y1="425.97" y2="433.97"/><line style="stroke:#181818;stroke-width:1.0;" x1="951.25" x2="945.25" y1="425.97" y2="433.97"/><line style="stroke:#181818;stroke-width:1.0;" x1="951.25" x2="951.25" y1="425.97" y2="433.97"/><ellipse cx="951.25" cy="419.97" fill="none" rx="4" ry="4" style="stroke:#181818;stroke-width:1.0;"/><text fill="#000000" font-family="sans-serif" font-size="13" lengthAdjust="spacing" textLength="24" x="926.25" y="396.0551">1..N</text></g><!--SRC=[dLNTRjCm5BxFKrYzsO-sYNBPkug2L0rAMSS3cCHghIPsvJX3rLg9RHA8gpx1X7Y33eqn6FGPd3VYE8uJfp-gjfievnpxdEzydtsyWzIrcgSNwMNwIItKR_L7pP5Qf9TWt81hhkxKJ_LFtQSpRq03Wdmg_91uyP2o4HOuGY5bH8v7174X1zppTf3wdbwbNs7JGkTLznvXaienUXyJWSuzXFRrNxlLG9H9jDizFa3DH7BKPhuW4IpUWpKT7946YgMWh0zcBn6iwdaPOHewTdV06UaaqGSY76-BXFICY74p20I9OtSzZkEFN0IEwuI7POKfyYpmjoAmoBFVBT0htRqwrgviMmjBI1_0LzA8M6zFOfcKmAP5rQxWGU9BKpSt7aTQYyI-e2D9ENCR5zJNE8XF8noYtVgp0_HypobiEJELhRMbT9KOq_K9JoHPyjbqAsJOm4O-icm6KpNnUa2GHyWkXnNkeM71igj5OucPmmZuJWK-8-4frMncy4eKFSa5xkSuSkDnghpcFgv8uaYEntfJBhandi1xC-A9xd5POcGBh92V-pTo3uJuSEFx1fcrdW3jHI84X5SuW5ipqdWqCiExWyxMsmWFTF27XIJ-S0kmvSjae2sBQRpl4fpLQBCiSnRJ8k9O6iI10tLgnf_waSxKBnXysSIRJ0uF-Na-H1geLZywwjGypzWwE9cKLww85vvyXJdz9bolUNOuv553G14rPbxOdjWYTQMoFNB5tZ8AUmlTIzpGuBVihVWB3yCTJ7fuAj8lCEtdwGo1CLStwW7UYy_w8RbL3zfxOHb1RneTP7Qgs_Gg9mNyUJ-LYTkM98hNZLsZpFvw6QrWPWJ0UT6gL9foaaDRdHK-LvQOply3]--></g></svg>