<?xml version="1.0" encoding="us-ascii" standalone="no"?><svg xmlns="http://www.w3.org/2000/svg" xmlns:xlink="http://www.w3.org/1999/xlink" contentStyleType="text/css" height="880px" preserveAspectRatio="none" style="width:578px;height:880px;background:#FFFFFF;" version="1.1" viewBox="0 0 578 880" width="578px" zoomAndPan="magnify"><defs/><g><!--class users--><g id="elem_users"><rect codeLine="2" fill="#F1F1F1" height="188.875" id="users" rx="2.5" ry="2.5" style="stroke:#181818;stroke-width:0.5;" width="165" x="204.5" y="7"/><ellipse cx="268.25" cy="23" fill="#ADD1B2" rx="11" ry="11" style="stroke:#181818;stroke-width:1.0;"/><path d="M267.1094,23.7969 L267.1094,26.2969 L271.4375,26.2969 L271.4375,25.375 Q271.4375,24.7656 271.6797,24.5 Q271.9219,24.2344 272.2969,24.2344 Q272.6719,24.2344 272.9063,24.5 Q273.1406,24.7656 273.1406,25.375 L273.1406,28 L265.1406,28 Q264.5156,28 264.2578,27.7656 Q264,27.5313 264,27.1406 Q264,26.7656 264.2656,26.5313 Q264.5313,26.2969 265.1406,26.2969 L265.4063,26.2969 L265.4063,19.6406 L265.1406,19.6406 Q264.5156,19.6406 264.2578,19.4063 Q264,19.1719 264,18.7813 Q264,18.4063 264.2578,18.1719 Q264.5156,17.9375 265.1406,17.9375 L272.7656,17.9375 L272.7656,20.5313 Q272.7656,21.1406 272.5391,21.3984 Q272.3125,21.6563 271.9219,21.6563 Q271.5469,21.6563 271.3125,21.3984 Q271.0781,21.1406 271.0781,20.5313 L271.0781,19.6406 L267.1094,19.6406 L267.1094,22.0938 L268.5938,22.0938 Q268.5938,21.4375 268.7188,21.25 Q268.9844,20.8438 269.4531,20.8438 Q269.8281,20.8438 270.0625,21.1016 Q270.2969,21.3594 270.2969,21.9688 L270.2969,23.9375 Q270.2969,24.4844 270.1719,24.6719 Q269.9063,25.0625 269.4531,25.0625 Q268.9844,25.0625 268.7188,24.6563 Q268.5938,24.4688 268.5938,23.7969 L267.1094,23.7969 Z " fill="#000000"/><text fill="#000000" font-family="sans-serif" font-size="14" lengthAdjust="spacing" textLength="29" x="288.75" y="28.7285">User</text><line style="stroke:#181818;stroke-width:0.5;" x1="205.5" x2="368.5" y1="39" y2="39"/><ellipse cx="215.5" cy="53.3047" fill="none" rx="3" ry="3" style="stroke:#038048;stroke-width:1.0;"/><text fill="#000000" font-family="sans-serif" font-size="14" lengthAdjust="spacing" textLength="90" x="224.5" y="57.5332">user_id: string</text><ellipse cx="215.5" cy="70.9141" fill="none" rx="3" ry="3" style="stroke:#038048;stroke-width:1.0;"/><text fill="#000000" font-family="sans-serif" font-size="14" lengthAdjust="spacing" textLength="109" x="224.5" y="75.1426">first_name: string</text><ellipse cx="215.5" cy="88.5234" fill="none" rx="3" ry="3" style="stroke:#038048;stroke-width:1.0;"/><text fill="#000000" font-family="sans-serif" font-size="14" lengthAdjust="spacing" textLength="108" x="224.5" y="92.752">last_name: string</text><ellipse cx="215.5" cy="106.1328" fill="none" rx="3" ry="3" style="stroke:#038048;stroke-width:1.0;"/><text fill="#000000" font-family="sans-serif" font-size="14" lengthAdjust="spacing" textLength="76" x="224.5" y="110.3613">email: string</text><ellipse cx="215.5" cy="123.7422" fill="none" rx="3" ry="3" style="stroke:#038048;stroke-width:1.0;"/><text fill="#000000" font-family="sans-serif" font-size="14" lengthAdjust="spacing" textLength="139" x="224.5" y="127.9707">phone_number: string</text><ellipse cx="215.5" cy="141.3516" fill="none" rx="3" ry="3" style="stroke:#038048;stroke-width:1.0;"/><text fill="#000000" font-family="sans-serif" font-size="14" lengthAdjust="spacing" textLength="67" x="224.5" y="145.5801">role: string</text><ellipse cx="215.5" cy="158.9609" fill="none" rx="3" ry="3" style="stroke:#038048;stroke-width:1.0;"/><text fill="#000000" font-family="sans-serif" font-size="14" lengthAdjust="spacing" textLength="103" x="224.5" y="163.1895">password: string</text><ellipse cx="215.5" cy="176.5703" fill="none" rx="3" ry="3" style="stroke:#038048;stroke-width:1.0;"/><text fill="#000000" font-family="sans-serif" font-size="14" lengthAdjust="spacing" textLength="82" x="224.5" y="180.7988">orders: array</text><line style="stroke:#181818;stroke-width:0.5;" x1="205.5" x2="368.5" y1="187.875" y2="187.875"/></g><!--class orders--><g id="elem_orders"><rect codeLine="13" fill="#F1F1F1" height="188.875" id="orders" rx="2.5" ry="2.5" style="stroke:#181818;stroke-width:0.5;" width="177" x="198.5" y="274"/><ellipse cx="264.25" cy="290" fill="#ADD1B2" rx="11" ry="11" style="stroke:#181818;stroke-width:1.0;"/><path d="M263.1094,290.7969 L263.1094,293.2969 L267.4375,293.2969 L267.4375,292.375 Q267.4375,291.7656 267.6797,291.5 Q267.9219,291.2344 268.2969,291.2344 Q268.6719,291.2344 268.9063,291.5 Q269.1406,291.7656 269.1406,292.375 L269.1406,295 L261.1406,295 Q260.5156,295 260.2578,294.7656 Q260,294.5313 260,294.1406 Q260,293.7656 260.2656,293.5313 Q260.5313,293.2969 261.1406,293.2969 L261.4063,293.2969 L261.4063,286.6406 L261.1406,286.6406 Q260.5156,286.6406 260.2578,286.4063 Q260,286.1719 260,285.7813 Q260,285.4063 260.2578,285.1719 Q260.5156,284.9375 261.1406,284.9375 L268.7656,284.9375 L268.7656,287.5313 Q268.7656,288.1406 268.5391,288.3984 Q268.3125,288.6563 267.9219,288.6563 Q267.5469,288.6563 267.3125,288.3984 Q267.0781,288.1406 267.0781,287.5313 L267.0781,286.6406 L263.1094,286.6406 L263.1094,289.0938 L264.5938,289.0938 Q264.5938,288.4375 264.7188,288.25 Q264.9844,287.8438 265.4531,287.8438 Q265.8281,287.8438 266.0625,288.1016 Q266.2969,288.3594 266.2969,288.9688 L266.2969,290.9375 Q266.2969,291.4844 266.1719,291.6719 Q265.9063,292.0625 265.4531,292.0625 Q264.9844,292.0625 264.7188,291.6563 Q264.5938,291.4688 264.5938,290.7969 L263.1094,290.7969 Z " fill="#000000"/><text fill="#000000" font-family="sans-serif" font-size="14" lengthAdjust="spacing" textLength="37" x="284.75" y="295.7285">Order</text><line style="stroke:#181818;stroke-width:0.5;" x1="199.5" x2="374.5" y1="306" y2="306"/><ellipse cx="209.5" cy="320.3047" fill="none" rx="3" ry="3" style="stroke:#038048;stroke-width:1.0;"/><text fill="#000000" font-family="sans-serif" font-size="14" lengthAdjust="spacing" textLength="96" x="218.5" y="324.5332">order_id: string</text><ellipse cx="209.5" cy="337.9141" fill="none" rx="3" ry="3" style="stroke:#038048;stroke-width:1.0;"/><text fill="#000000" font-family="sans-serif" font-size="14" lengthAdjust="spacing" textLength="90" x="218.5" y="342.1426">user_id: string</text><ellipse cx="209.5" cy="355.5234" fill="none" rx="3" ry="3" style="stroke:#038048;stroke-width:1.0;"/><text fill="#000000" font-family="sans-serif" font-size="14" lengthAdjust="spacing" textLength="106" x="218.5" y="359.752">order_date: date</text><ellipse cx="209.5" cy="373.1328" fill="none" rx="3" ry="3" style="stroke:#038048;stroke-width:1.0;"/><text fill="#000000" font-family="sans-serif" font-size="14" lengthAdjust="spacing" textLength="151" x="218.5" y="377.3613">delivery_address: string</text><ellipse cx="209.5" cy="390.7422" fill="none" rx="3" ry="3" style="stroke:#038048;stroke-width:1.0;"/><text fill="#000000" font-family="sans-serif" font-size="14" lengthAdjust="spacing" textLength="123" x="218.5" y="394.9707">order_status: string</text><ellipse cx="209.5" cy="408.3516" fill="none" rx="3" ry="3" style="stroke:#038048;stroke-width:1.0;"/><text fill="#000000" font-family="sans-serif" font-size="14" lengthAdjust="spacing" textLength="74" x="218.5" y="412.5801">items: array</text><ellipse cx="209.5" cy="425.9609" fill="none" rx="3" ry="3" style="stroke:#038048;stroke-width:1.0;"/><text fill="#000000" font-family="sans-serif" font-size="14" lengthAdjust="spacing" textLength="100" x="218.5" y="430.1895">payment: object</text><ellipse cx="209.5" cy="443.5703" fill="none" rx="3" ry="3" style="stroke:#038048;stroke-width:1.0;"/><text fill="#000000" font-family="sans-serif" font-size="14" lengthAdjust="spacing" textLength="95" x="218.5" y="447.7988">delivery: object</text><line style="stroke:#181818;stroke-width:0.5;" x1="199.5" x2="374.5" y1="454.875" y2="454.875"/></g><!--class order_items--><g id="elem_order_items"><rect codeLine="24" fill="#F1F1F1" height="118.4375" id="order_items" rx="2.5" ry="2.5" style="stroke:#181818;stroke-width:0.5;" width="160" x="7" y="541"/><ellipse cx="44.5" cy="557" fill="#ADD1B2" rx="11" ry="11" style="stroke:#181818;stroke-width:1.0;"/><path d="M43.3594,557.7969 L43.3594,560.2969 L47.6875,560.2969 L47.6875,559.375 Q47.6875,558.7656 47.9297,558.5 Q48.1719,558.2344 48.5469,558.2344 Q48.9219,558.2344 49.1563,558.5 Q49.3906,558.7656 49.3906,559.375 L49.3906,562 L41.3906,562 Q40.7656,562 40.5078,561.7656 Q40.25,561.5313 40.25,561.1406 Q40.25,560.7656 40.5156,560.5313 Q40.7813,560.2969 41.3906,560.2969 L41.6563,560.2969 L41.6563,553.6406 L41.3906,553.6406 Q40.7656,553.6406 40.5078,553.4063 Q40.25,553.1719 40.25,552.7813 Q40.25,552.4063 40.5078,552.1719 Q40.7656,551.9375 41.3906,551.9375 L49.0156,551.9375 L49.0156,554.5313 Q49.0156,555.1406 48.7891,555.3984 Q48.5625,555.6563 48.1719,555.6563 Q47.7969,555.6563 47.5625,555.3984 Q47.3281,555.1406 47.3281,554.5313 L47.3281,553.6406 L43.3594,553.6406 L43.3594,556.0938 L44.8438,556.0938 Q44.8438,555.4375 44.9688,555.25 Q45.2344,554.8438 45.7031,554.8438 Q46.0781,554.8438 46.3125,555.1016 Q46.5469,555.3594 46.5469,555.9688 L46.5469,557.9375 Q46.5469,558.4844 46.4219,558.6719 Q46.1563,559.0625 45.7031,559.0625 Q45.2344,559.0625 44.9688,558.6563 Q44.8438,558.4688 44.8438,557.7969 L43.3594,557.7969 Z " fill="#000000"/><text fill="#000000" font-family="sans-serif" font-size="14" lengthAdjust="spacing" textLength="78" x="63.5" y="562.7285">Order_Items</text><line style="stroke:#181818;stroke-width:0.5;" x1="8" x2="166" y1="573" y2="573"/><ellipse cx="18" cy="587.3047" fill="none" rx="3" ry="3" style="stroke:#038048;stroke-width:1.0;"/><text fill="#000000" font-family="sans-serif" font-size="14" lengthAdjust="spacing" textLength="110" x="27" y="591.5332">product_id: string</text><ellipse cx="18" cy="604.9141" fill="none" rx="3" ry="3" style="stroke:#038048;stroke-width:1.0;"/><text fill="#000000" font-family="sans-serif" font-size="14" lengthAdjust="spacing" textLength="134" x="27" y="609.1426">product_name: string</text><ellipse cx="18" cy="622.5234" fill="none" rx="3" ry="3" style="stroke:#038048;stroke-width:1.0;"/><text fill="#000000" font-family="sans-serif" font-size="14" lengthAdjust="spacing" textLength="73" x="27" y="626.752">quantity: int</text><ellipse cx="18" cy="640.1328" fill="none" rx="3" ry="3" style="stroke:#038048;stroke-width:1.0;"/><text fill="#000000" font-family="sans-serif" font-size="14" lengthAdjust="spacing" textLength="66" x="27" y="644.3613">price: float</text><line style="stroke:#181818;stroke-width:0.5;" x1="8" x2="166" y1="651.4375" y2="651.4375"/></g><!--class payment--><g id="elem_payment"><rect codeLine="31" fill="#F1F1F1" height="118.4375" id="payment" rx="2.5" ry="2.5" style="stroke:#181818;stroke-width:0.5;" width="169" x="202.5" y="541"/><ellipse cx="255.25" cy="557" fill="#ADD1B2" rx="11" ry="11" style="stroke:#181818;stroke-width:1.0;"/><path d="M254.1094,557.7969 L254.1094,560.2969 L258.4375,560.2969 L258.4375,559.375 Q258.4375,558.7656 258.6797,558.5 Q258.9219,558.2344 259.2969,558.2344 Q259.6719,558.2344 259.9063,558.5 Q260.1406,558.7656 260.1406,559.375 L260.1406,562 L252.1406,562 Q251.5156,562 251.2578,561.7656 Q251,561.5313 251,561.1406 Q251,560.7656 251.2656,560.5313 Q251.5313,560.2969 252.1406,560.2969 L252.4063,560.2969 L252.4063,553.6406 L252.1406,553.6406 Q251.5156,553.6406 251.2578,553.4063 Q251,553.1719 251,552.7813 Q251,552.4063 251.2578,552.1719 Q251.5156,551.9375 252.1406,551.9375 L259.7656,551.9375 L259.7656,554.5313 Q259.7656,555.1406 259.5391,555.3984 Q259.3125,555.6563 258.9219,555.6563 Q258.5469,555.6563 258.3125,555.3984 Q258.0781,555.1406 258.0781,554.5313 L258.0781,553.6406 L254.1094,553.6406 L254.1094,556.0938 L255.5938,556.0938 Q255.5938,555.4375 255.7188,555.25 Q255.9844,554.8438 256.4531,554.8438 Q256.8281,554.8438 257.0625,555.1016 Q257.2969,555.3594 257.2969,555.9688 L257.2969,557.9375 Q257.2969,558.4844 257.1719,558.6719 Q256.9063,559.0625 256.4531,559.0625 Q255.9844,559.0625 255.7188,558.6563 Q255.5938,558.4688 255.5938,557.7969 L254.1094,557.7969 Z " fill="#000000"/><text fill="#000000" font-family="sans-serif" font-size="14" lengthAdjust="spacing" textLength="55" x="275.75" y="562.7285">Payment</text><line style="stroke:#181818;stroke-width:0.5;" x1="203.5" x2="370.5" y1="573" y2="573"/><ellipse cx="213.5" cy="587.3047" fill="none" rx="3" ry="3" style="stroke:#038048;stroke-width:1.0;"/><text fill="#000000" font-family="sans-serif" font-size="14" lengthAdjust="spacing" textLength="116" x="222.5" y="591.5332">payment_id: string</text><ellipse cx="213.5" cy="604.9141" fill="none" rx="3" ry="3" style="stroke:#038048;stroke-width:1.0;"/><text fill="#000000" font-family="sans-serif" font-size="14" lengthAdjust="spacing" textLength="126" x="222.5" y="609.1426">payment_date: date</text><ellipse cx="213.5" cy="622.5234" fill="none" rx="3" ry="3" style="stroke:#038048;stroke-width:1.0;"/><text fill="#000000" font-family="sans-serif" font-size="14" lengthAdjust="spacing" textLength="82" x="222.5" y="626.752">amount: float</text><ellipse cx="213.5" cy="640.1328" fill="none" rx="3" ry="3" style="stroke:#038048;stroke-width:1.0;"/><text fill="#000000" font-family="sans-serif" font-size="14" lengthAdjust="spacing" textLength="143" x="222.5" y="644.3613">payment_status: string</text><line style="stroke:#181818;stroke-width:0.5;" x1="203.5" x2="370.5" y1="651.4375" y2="651.4375"/></g><!--class delivery--><g id="elem_delivery"><rect codeLine="38" fill="#F1F1F1" height="118.4375" id="delivery" rx="2.5" ry="2.5" style="stroke:#181818;stroke-width:0.5;" width="164" x="407" y="541"/><ellipse cx="459.25" cy="557" fill="#ADD1B2" rx="11" ry="11" style="stroke:#181818;stroke-width:1.0;"/><path d="M458.1094,557.7969 L458.1094,560.2969 L462.4375,560.2969 L462.4375,559.375 Q462.4375,558.7656 462.6797,558.5 Q462.9219,558.2344 463.2969,558.2344 Q463.6719,558.2344 463.9063,558.5 Q464.1406,558.7656 464.1406,559.375 L464.1406,562 L456.1406,562 Q455.5156,562 455.2578,561.7656 Q455,561.5313 455,561.1406 Q455,560.7656 455.2656,560.5313 Q455.5313,560.2969 456.1406,560.2969 L456.4063,560.2969 L456.4063,553.6406 L456.1406,553.6406 Q455.5156,553.6406 455.2578,553.4063 Q455,553.1719 455,552.7813 Q455,552.4063 455.2578,552.1719 Q455.5156,551.9375 456.1406,551.9375 L463.7656,551.9375 L463.7656,554.5313 Q463.7656,555.1406 463.5391,555.3984 Q463.3125,555.6563 462.9219,555.6563 Q462.5469,555.6563 462.3125,555.3984 Q462.0781,555.1406 462.0781,554.5313 L462.0781,553.6406 L458.1094,553.6406 L458.1094,556.0938 L459.5938,556.0938 Q459.5938,555.4375 459.7188,555.25 Q459.9844,554.8438 460.4531,554.8438 Q460.8281,554.8438 461.0625,555.1016 Q461.2969,555.3594 461.2969,555.9688 L461.2969,557.9375 Q461.2969,558.4844 461.1719,558.6719 Q460.9063,559.0625 460.4531,559.0625 Q459.9844,559.0625 459.7188,558.6563 Q459.5938,558.4688 459.5938,557.7969 L458.1094,557.7969 Z " fill="#000000"/><text fill="#000000" font-family="sans-serif" font-size="14" lengthAdjust="spacing" textLength="51" x="479.75" y="562.7285">Delivery</text><line style="stroke:#181818;stroke-width:0.5;" x1="408" x2="570" y1="573" y2="573"/><ellipse cx="418" cy="587.3047" fill="none" rx="3" ry="3" style="stroke:#038048;stroke-width:1.0;"/><text fill="#000000" font-family="sans-serif" font-size="14" lengthAdjust="spacing" textLength="111" x="427" y="591.5332">delivery_id: string</text><ellipse cx="418" cy="604.9141" fill="none" rx="3" ry="3" style="stroke:#038048;stroke-width:1.0;"/><text fill="#000000" font-family="sans-serif" font-size="14" lengthAdjust="spacing" textLength="79" x="427" y="609.1426">route: object</text><ellipse cx="418" cy="622.5234" fill="none" rx="3" ry="3" style="stroke:#038048;stroke-width:1.0;"/><text fill="#000000" font-family="sans-serif" font-size="14" lengthAdjust="spacing" textLength="121" x="427" y="626.752">delivery_date: date</text><ellipse cx="418" cy="640.1328" fill="none" rx="3" ry="3" style="stroke:#038048;stroke-width:1.0;"/><text fill="#000000" font-family="sans-serif" font-size="14" lengthAdjust="spacing" textLength="138" x="427" y="644.3613">delivery_status: string</text><line style="stroke:#181818;stroke-width:0.5;" x1="408" x2="570" y1="651.4375" y2="651.4375"/></g><!--class route--><g id="elem_route"><rect codeLine="45" fill="#F1F1F1" height="136.0469" id="route" rx="2.5" ry="2.5" style="stroke:#181818;stroke-width:0.5;" width="164" x="407" y="737"/><ellipse cx="465.75" cy="753" fill="#ADD1B2" rx="11" ry="11" style="stroke:#181818;stroke-width:1.0;"/><path d="M464.6094,753.7969 L464.6094,756.2969 L468.9375,756.2969 L468.9375,755.375 Q468.9375,754.7656 469.1797,754.5 Q469.4219,754.2344 469.7969,754.2344 Q470.1719,754.2344 470.4063,754.5 Q470.6406,754.7656 470.6406,755.375 L470.6406,758 L462.6406,758 Q462.0156,758 461.7578,757.7656 Q461.5,757.5313 461.5,757.1406 Q461.5,756.7656 461.7656,756.5313 Q462.0313,756.2969 462.6406,756.2969 L462.9063,756.2969 L462.9063,749.6406 L462.6406,749.6406 Q462.0156,749.6406 461.7578,749.4063 Q461.5,749.1719 461.5,748.7813 Q461.5,748.4063 461.7578,748.1719 Q462.0156,747.9375 462.6406,747.9375 L470.2656,747.9375 L470.2656,750.5313 Q470.2656,751.1406 470.0391,751.3984 Q469.8125,751.6563 469.4219,751.6563 Q469.0469,751.6563 468.8125,751.3984 Q468.5781,751.1406 468.5781,750.5313 L468.5781,749.6406 L464.6094,749.6406 L464.6094,752.0938 L466.0938,752.0938 Q466.0938,751.4375 466.2188,751.25 Q466.4844,750.8438 466.9531,750.8438 Q467.3281,750.8438 467.5625,751.1016 Q467.7969,751.3594 467.7969,751.9688 L467.7969,753.9375 Q467.7969,754.4844 467.6719,754.6719 Q467.4063,755.0625 466.9531,755.0625 Q466.4844,755.0625 466.2188,754.6563 Q466.0938,754.4688 466.0938,753.7969 L464.6094,753.7969 Z " fill="#000000"/><text fill="#000000" font-family="sans-serif" font-size="14" lengthAdjust="spacing" textLength="38" x="486.25" y="758.7285">Route</text><line style="stroke:#181818;stroke-width:0.5;" x1="408" x2="570" y1="769" y2="769"/><ellipse cx="418" cy="783.3047" fill="none" rx="3" ry="3" style="stroke:#038048;stroke-width:1.0;"/><text fill="#000000" font-family="sans-serif" font-size="14" lengthAdjust="spacing" textLength="95" x="427" y="787.5332">route_id: string</text><ellipse cx="418" cy="800.9141" fill="none" rx="3" ry="3" style="stroke:#038048;stroke-width:1.0;"/><text fill="#000000" font-family="sans-serif" font-size="14" lengthAdjust="spacing" textLength="110" x="427" y="805.1426">start_point: string</text><ellipse cx="418" cy="818.5234" fill="none" rx="3" ry="3" style="stroke:#038048;stroke-width:1.0;"/><text fill="#000000" font-family="sans-serif" font-size="14" lengthAdjust="spacing" textLength="106" x="427" y="822.752">end_point: string</text><ellipse cx="418" cy="836.1328" fill="none" rx="3" ry="3" style="stroke:#038048;stroke-width:1.0;"/><text fill="#000000" font-family="sans-serif" font-size="14" lengthAdjust="spacing" textLength="103" x="427" y="840.3613">route_length: int</text><ellipse cx="418" cy="853.7422" fill="none" rx="3" ry="3" style="stroke:#038048;stroke-width:1.0;"/><text fill="#000000" font-family="sans-serif" font-size="14" lengthAdjust="spacing" textLength="138" x="427" y="857.9707">estimated_time: string</text><line style="stroke:#181818;stroke-width:0.5;" x1="408" x2="570" y1="865.0469" y2="865.0469"/></g><!--link users to orders--><g id="link_users_orders"><path codeLine="53" d="M287,196.3 C287,221.46 287,248.67 287,273.82 " fill="none" id="users-orders" style="stroke:#181818;stroke-width:1.0;"/><text fill="#000000" font-family="sans-serif" font-size="13" lengthAdjust="spacing" textLength="109" x="288" y="240.4951">&#1057;c&#1099;&#1083;&#1082;&#1072; &#1087;&#1086; user_id</text></g><!--link orders to order_items--><g id="link_orders_order_items"><path codeLine="54" d="M205.36,463.18 C182.47,489.45 158.24,517.26 137.7,540.82 " fill="none" id="orders-order_items" style="stroke:#181818;stroke-width:1.0;"/><text fill="#000000" font-family="sans-serif" font-size="13" lengthAdjust="spacing" textLength="79" x="177" y="507.4951">&#1042;&#1083;&#1086;&#1078;&#1077;&#1085;&#1085;&#1086;&#1089;&#1090;&#1100;</text></g><!--link orders to payment--><g id="link_orders_payment"><path codeLine="55" d="M287,463.18 C287,489.45 287,517.26 287,540.82 " fill="none" id="orders-payment" style="stroke:#181818;stroke-width:1.0;"/><text fill="#000000" font-family="sans-serif" font-size="13" lengthAdjust="spacing" textLength="79" x="288" y="507.4951">&#1042;&#1083;&#1086;&#1078;&#1077;&#1085;&#1085;&#1086;&#1089;&#1090;&#1100;</text></g><!--link orders to delivery--><g id="link_orders_delivery"><path codeLine="56" d="M369.45,463.18 C392.58,489.45 417.05,517.26 437.79,540.82 " fill="none" id="orders-delivery" style="stroke:#181818;stroke-width:1.0;"/><text fill="#000000" font-family="sans-serif" font-size="13" lengthAdjust="spacing" textLength="127" x="407" y="507.4951">&#1057;&#1089;&#1099;&#1083;&#1082;&#1072; &#1087;&#1086; delivery_id</text></g><!--link delivery to route--><g id="link_delivery_route"><path codeLine="57" d="M489,659.17 C489,683.42 489,711.74 489,736.87 " fill="none" id="delivery-route" style="stroke:#181818;stroke-width:1.0;"/><text fill="#000000" font-family="sans-serif" font-size="13" lengthAdjust="spacing" textLength="79" x="490" y="703.4951">&#1042;&#1083;&#1086;&#1078;&#1077;&#1085;&#1085;&#1086;&#1089;&#1090;&#1100;</text></g><!--SRC=[ZLCxJiGm4Erp2YijsWkafg428L5R9fxTDKhinNP04QA05Yfkm0ree02nNC6v4Vub6sUp24LAxF6RUU_DEC0rqotABnJ871656hjGw2v3wCYlCQC5KbeollAn9PDAOqvgIC8LcOj2JLYLH3PhmG7pfhu4cHn8KQMv6wBKhP0fkzrRUGKYKf8skyyoYFfFtO4t423HWTzCBSpP2a1Aj1NXtZv8eM8t85jCA9MWr4o6qaGtwG7JK0yIWvEsjZeB92wleDH9wI4uzO9FN9cT8-pBHbiRAMXJwgc9FhmtX-k6-De5Obn7A2ijPba9ad2V1QsUD-hkESDkZpE69wqZjMYSvK0m1auwDk8-ZZtnv7s38limYWcz58tZdUdimM4U5d3kYdbsNpPI-_MKrnQH6cy4SoR7DvxJcMWeKG5VwVLk1g0qgwqyYkqNneB2JxXOz9UvGBbvBRidysK-pHioFsRRt-8yYvWU7I-AItcn-AtvCE_cspxRxg5xx9x72Vs4_mKU9kBLsFD4pcX0UJP0RLfevHyClm00]--></g></svg>